<mxfile host="app.diagrams.net" modified="2023-03-02T09:13:47.732Z" agent="5.0 (Macintosh; Intel Mac OS X 10_15_7) AppleWebKit/537.36 (KHTML, like Gecko) Chrome/109.0.0.0 Safari/537.36" etag="A9iqdnh-Q7a1KAOwePTH" version="20.8.23" type="github">
  <diagram name="Page-1" id="e7e014a7-5840-1c2e-5031-d8a46d1fe8dd">
    <mxGraphModel dx="954" dy="562" grid="1" gridSize="10" guides="1" tooltips="1" connect="1" arrows="1" fold="1" page="1" pageScale="1" pageWidth="1169" pageHeight="826" background="none" math="0" shadow="0">
      <root>
        <mxCell id="0" />
        <mxCell id="1" parent="0" />
        <mxCell id="2" value="企业微信" style="swimlane;whiteSpace=wrap" parent="1" vertex="1">
          <mxGeometry x="240" y="70" width="205.5" height="570" as="geometry" />
        </mxCell>
        <mxCell id="vIlLBWfcTn-oUiC3ydf3-43" style="edgeStyle=orthogonalEdgeStyle;rounded=0;orthogonalLoop=1;jettySize=auto;html=1;entryX=0.5;entryY=0;entryDx=0;entryDy=0;" edge="1" parent="2" source="vIlLBWfcTn-oUiC3ydf3-41" target="vIlLBWfcTn-oUiC3ydf3-42">
          <mxGeometry relative="1" as="geometry" />
        </mxCell>
        <mxCell id="vIlLBWfcTn-oUiC3ydf3-41" value="打开应用" style="strokeWidth=1;html=1;shape=mxgraph.flowchart.start_1;whiteSpace=wrap;strokeColor=#000000;fillColor=#FFFFFF;" vertex="1" parent="2">
          <mxGeometry x="53" y="50" width="97" height="40" as="geometry" />
        </mxCell>
        <mxCell id="vIlLBWfcTn-oUiC3ydf3-42" value="登录态校验" style="rounded=1;whiteSpace=wrap;html=1;strokeColor=#000000;strokeWidth=1;fillColor=#FFFFFF;" vertex="1" parent="2">
          <mxGeometry x="48" y="130" width="107" height="40" as="geometry" />
        </mxCell>
        <mxCell id="3" value="教育平台" style="swimlane;whiteSpace=wrap" parent="1" vertex="1">
          <mxGeometry x="445.5" y="70" width="235.5" height="570" as="geometry" />
        </mxCell>
        <mxCell id="vIlLBWfcTn-oUiC3ydf3-44" value="登录态校验" style="rounded=1;whiteSpace=wrap;html=1;strokeColor=#000000;strokeWidth=1;fillColor=#FFFFFF;" vertex="1" parent="3">
          <mxGeometry x="64.25" y="130" width="107" height="40" as="geometry" />
        </mxCell>
        <mxCell id="4" value="教育号" style="swimlane;whiteSpace=wrap" parent="1" vertex="1">
          <mxGeometry x="681" y="70" width="234.5" height="570" as="geometry" />
        </mxCell>
      </root>
    </mxGraphModel>
  </diagram>
</mxfile>
